# xmcd CD database file
#
# Track frame offsets:
#	182
#	14667
#	26035
#	43407
#	56880
#	73040
#	87490
#	101490
#	115250
#	128540
#	142162
#
# Disc length: 2078 seconds
#
# Revision: 1
# Processed by: cddbd v1.4PL0 Copyright (c) Steve Scherf et al.
# Submitted via: CDex 1.50
#
DISCID=a6081c0b
DTITLE=Merle Haggard - Best of the '90's
DYEAR=2000
DGENRE=Country
TTITLE0=Way Back In The Mountains
TTITLE1=Troubadour
TTITLE2=In My Next Life
TTITLE3=Bye, Bye Travelin' Blues
TTITLE4=Swingin' Doors (with Tony Toliver)
TTITLE5=Lucky Old Colorado
TTITLE6=Never No More Blues
TTITLE7=A Bar In Bakersfield
TTITLE8=My Home Is In The Street
TTITLE9=Too Many Highways
TTITLE10=If Anyone Ought To Know
EXTD=YEAR: 2000
EXTT0=
EXTT1=
EXTT2=
EXTT3=
EXTT4=
EXTT5=
EXTT6=
EXTT7=
EXTT8=
EXTT9=
EXTT10=
PLAYORDER=
